{"title":"Pitch Perfect 2 (2015) Cam.x264.mvsnap.mp4","uid":11952407,"size":420374805,"categoryP":"video","categoryS":"movies","magnet":"?xt=urn:btih:df70463ef3ea723e7b9ff33d7097e54ffbc92b14&amp;dn=Pitch+Perfect+2+%282015%29+Cam.x264.mvsnap.mp4&amp;tr=udp%3A%2F%2Ftracker.openbittorrent.com%3A80&amp;tr=udp%3A%2F%2Fopen.demonii.com%3A1337&amp;tr=udp%3A%2F%2Ftracker.coppersurfer.tk%3A6969&amp;tr=udp%3A%2F%2Fexodus.desync.com%3A6969","seeders":0,"leechers":1,"uploader":"xuka","files":1,"time":1432213799,"description":" &lt;a href=&quot;http://www.imdb.com/title/tt2848292/&quot; rel=&quot;nofollow&quot; target=&quot;_NEW&quot;&gt;http://www.imdb.com/title/tt2848292/&lt;/a&gt;\n\nStoryline:\nThe Bellas are back, and they are better than ever. After being humiliated in front of none other than the President of the United States of America, the Bellas are taken out of the Aca-Circuit. In order to clear their name and regain their status, the Bellas take on a seemingly impossible task: winning an International competition no American team has ever won. In order to accomplish this monumental task, they need to strengthen the bonds of friendship and sisterhood, and blow away the competition with their amazing aca-magic! With all new friends and old rivals tagging along for the trip, the Bellas can hopefully accomplish their dreams once again\n\nGenres: Comedy | Music\nCountry: USA\nLanguage: English\n\nInput #0, mov,mp4,m4a,3gp,3g2,mj2, from 'pitch.perfect.2.2015.cam.x264.mvsnap.mp4':\n  Metadata:\n    major_brand     : isom\n    minor_version   : 512\n    compatible_brands: isomiso2avc1mp41\n    encoder         : mvsnap\n  Duration: 01:45:24.03, start: 0.023220, bitrate: 531 kb/s\n    Stream #0:0(und): Video: h264 (Constrained Baseline) (avc1 / 0x31637661), yuv420p, 640x360 [SAR 1:1 DAR 16:9], 398 kb/s, 24 fps, 24 tbr, 12288 tbn, 48 tbc (default)\n    Metadata:\n      handler_name    : VideoHandler\n    Stream #0:1(und): Audio: aac (LC) (mp4a / 0x6134706D), 44100 Hz, stereo, fltp, 128 kb/s (default)\n\tSource: MvSnap","torrent":{"xt":"urn:btih:df70463ef3ea723e7b9ff33d7097e54ffbc92b14","amp;dn":"Pitch+Perfect+2+%282015%29+Cam.x264.mvsnap.mp4","amp;tr":["udp%3A%2F%2Ftracker.openbittorrent.com%3A80","udp%3A%2F%2Fopen.demonii.com%3A1337","udp%3A%2F%2Ftracker.coppersurfer.tk%3A6969","udp%3A%2F%2Fexodus.desync.com%3A6969"],"infoHash":"df70463ef3ea723e7b9ff33d7097e54ffbc92b14","infoHashBuffer":{"type":"Buffer","data":[223,112,70,62,243,234,114,62,123,159,243,61,112,151,229,79,251,201,43,20]},"announce":[],"urlList":[]}}